<svg width="119" height="94" viewBox="0 0 119 94" fill="none" xmlns="http://www.w3.org/2000/svg">
    <rect x="13" y="6" width="82" height="82" rx="41" fill="#130160" />
    <circle cx="45.3154" cy="51.9071" r="7.55558" transform="rotate(-165 45.3154 51.9071)"
        stroke="white" stroke-width="5" />
    <path d="M53.552 46.5529L75.9164 33.7323" stroke="white" stroke-width="5"
        stroke-linecap="round" />
    <path d="M72.0193 35.9824L74.5193 40.3125" stroke="white" stroke-width="5"
        stroke-linecap="round" />
    <path d="M64.658 40.2324L67.158 44.5625" stroke="white" stroke-width="5"
        stroke-linecap="round" />
    <rect opacity="0.5" x="5" y="3" width="42" height="42" rx="21" fill="#4C407B" />
    <rect width="42" height="42" rx="21" fill="#FF9228" />
    <path
        d="M18.9199 23.2637V22.541C18.9199 22.0983 18.9818 21.7077 19.1055 21.3691C19.2292 21.0241 19.4277 20.6986 19.7012 20.3926C19.9746 20.0801 20.3359 19.7611 20.7852 19.4355C21.1888 19.1491 21.5111 18.8919 21.752 18.6641C21.9993 18.4362 22.1784 18.2116 22.2891 17.9902C22.4062 17.7624 22.4648 17.5052 22.4648 17.2188C22.4648 16.7956 22.3086 16.4733 21.9961 16.252C21.6836 16.0306 21.2474 15.9199 20.6875 15.9199C20.1276 15.9199 19.571 16.0078 19.0176 16.1836C18.4707 16.3594 17.9141 16.5905 17.3477 16.877L16.2832 14.7383C16.9342 14.3737 17.6406 14.0807 18.4023 13.8594C19.1641 13.6315 19.9974 13.5176 20.9023 13.5176C22.2956 13.5176 23.373 13.8529 24.1348 14.5234C24.903 15.1875 25.2871 16.0339 25.2871 17.0625C25.2871 17.6094 25.1992 18.0846 25.0234 18.4883C24.8542 18.8854 24.5938 19.2565 24.2422 19.6016C23.8971 19.9401 23.4642 20.2982 22.9434 20.6758C22.5527 20.9622 22.2533 21.2031 22.0449 21.3984C21.8366 21.5938 21.6934 21.7891 21.6152 21.9844C21.5436 22.1732 21.5078 22.4043 21.5078 22.6777V23.2637H18.9199ZM18.6074 26.6035C18.6074 25.9915 18.7734 25.5618 19.1055 25.3145C19.444 25.0671 19.8509 24.9434 20.3262 24.9434C20.7884 24.9434 21.1855 25.0671 21.5176 25.3145C21.8561 25.5618 22.0254 25.9915 22.0254 26.6035C22.0254 27.1895 21.8561 27.6126 21.5176 27.873C21.1855 28.1335 20.7884 28.2637 20.3262 28.2637C19.8509 28.2637 19.444 28.1335 19.1055 27.873C18.7734 27.6126 18.6074 27.1895 18.6074 26.6035Z"
        fill="white" />
    <path
        d="M107.408 83.3056L107.596 79.0892C109.554 78.0443 111.737 77.4924 113.956 77.4813C110.902 79.9754 111.283 84.7832 109.212 88.1372C108.558 89.1783 107.678 90.0591 106.637 90.7144C105.596 91.3696 104.42 91.7825 103.198 91.9224L100.641 93.4854C100.291 91.5326 100.368 89.527 100.868 87.6069C101.368 85.6867 102.279 83.8977 103.538 82.3631C104.253 81.5091 105.073 80.7485 105.978 80.0991C106.59 81.7113 107.408 83.3056 107.408 83.3056Z"
        fill="#E6E6E6" />
    <path d="M100.822 91.3156L98.5072 91.3154L97.406 82.3993L100.822 82.3995L100.822 91.3156Z"
        fill="#FFB6B6" />
    <path
        d="M101.412 93.5562L93.9486 93.556V93.4617C93.9487 92.6923 94.2547 91.9544 94.7995 91.4104C95.3443 90.8663 96.0832 90.5606 96.8536 90.5606H96.8538L98.2172 89.5277L100.761 90.5608L101.412 90.5608L101.412 93.5562Z"
        fill="#2F2E41" />
    <path d="M90.068 91.3156L87.7534 91.3154L86.6522 82.3993L90.0686 82.3995L90.068 91.3156Z"
        fill="#FFB6B6" />
    <path
        d="M90.6584 93.5562L83.1948 93.556V93.4617C83.1949 92.6923 83.501 91.9544 84.0458 91.4104C84.5905 90.8663 85.3294 90.5606 86.0999 90.5606H86.1001L87.4634 89.5277L90.007 90.5608L90.6586 90.5608L90.6584 93.5562Z"
        fill="#2F2E41" />
    <path
        d="M89.0662 42.5704L104.122 42.9463C106.982 44.4973 107.025 47.8543 106.088 51.8399C106.088 51.8399 106.404 54.2089 105.772 54.8406C105.139 55.4723 104.823 55.4723 105.139 56.5778C105.456 57.6833 103.784 59.4889 103.987 59.6916C104.19 59.8943 104.665 60.9998 104.665 60.9998L103.083 70.0018C103.083 70.0018 101.976 85.6369 101.66 85.9527C101.344 86.2686 101.027 85.9527 101.344 86.7424C101.66 87.532 101.976 87.2162 101.66 87.532C101.38 87.8337 101.116 88.15 100.869 88.4796H97.0459C97.0459 88.4796 96.7576 86.9003 96.7576 86.7424C96.7576 86.5844 96.4413 85.6369 96.4413 85.4789C96.4413 85.321 96.7209 85.0418 96.7209 85.0418C96.8175 84.7208 96.8828 84.3912 96.9158 84.0576C96.9158 83.7417 97.8646 71.5811 97.8646 71.5811L95.9669 55.7882L91.3808 71.2653C91.3808 71.2653 91.3808 84.8472 91.0645 85.1631C90.7482 85.4789 90.7482 85.321 90.9063 85.9527C91.0645 86.5844 91.6971 86.4265 91.2226 86.9003C90.7482 87.3741 90.59 86.5844 90.7482 87.3741L90.9063 88.1637L86.162 88.2315C86.162 88.2315 85.5295 86.9003 85.8457 86.4265C86.162 85.9527 86.1431 86.082 85.7572 85.3067C85.3713 84.5313 85.2132 84.3734 85.3713 84.2155C85.5295 84.0576 85.5295 83.2176 85.5295 83.2176L86.3202 68.1067C86.3202 68.1067 86.4783 52.1558 86.4783 51.682C86.4902 51.4382 86.4453 51.195 86.347 50.9715V50.3284L86.9528 48.0496L89.0662 42.5704Z"
        fill="#69687F" />
    <path
        d="M98.1106 11.3062C100.694 11.3062 102.789 9.21461 102.789 6.63453C102.789 4.05445 100.694 1.96289 98.1106 1.96289C95.527 1.96289 93.4326 4.05445 93.4326 6.63453C93.4326 9.21461 95.527 11.3062 98.1106 11.3062Z"
        fill="#FFB6B6" />
    <path
        d="M95.7715 14.3939C94.7637 14.9922 94.1608 16.0916 93.8147 17.2102C93.174 19.2814 92.7884 21.4227 92.6663 23.587L92.3007 30.0665L87.7737 43.8631C91.6971 47.1784 106.445 44.6166 106.445 44.6166C106.445 44.6166 106.897 44.4659 106.445 44.0138C105.992 43.5617 105.551 43.9622 106.004 43.5101C106.457 43.058 106.145 43.5617 105.994 43.1096C105.843 42.6575 105.994 42.9589 106.145 42.8082C106.296 42.6575 104.976 41.3012 104.976 41.3012L106.184 33.3818L107.693 17.4078C105.882 15.1473 102.24 13.8148 102.24 13.8148L101.299 12.1233L96.5941 12.4992L95.7715 14.3939Z"
        fill="#130160" />
    <path
        d="M95.1299 3.89286C95.3109 3.89427 95.4911 3.91788 95.6663 3.96315C96.0118 4.04609 96.3626 4.10484 96.7163 4.13898C97.7993 4.24073 98.8168 4.70195 99.6065 5.44899C100.396 6.19603 100.912 7.18578 101.073 8.26018C101.345 8.02351 101.963 7.58815 102.47 7.99276C102.478 7.99919 102.482 8.00249 102.5 7.99405C102.837 7.83455 103.435 5.87123 103.453 4.14256C103.462 3.22505 103.318 2.05342 102.574 1.6824L102.535 1.66285L102.525 1.62036C102.475 1.41397 101.921 1.06166 100.957 0.787456C99.2049 0.289145 96.5935 -0.681573 95.123 0.747009C95.0117 1.22862 94.6497 2.25926 94.284 2.37608C93.879 2.50539 93.5292 2.61698 93.4741 3.11309C93.428 3.81909 93.4314 4.52744 93.4841 5.23297C93.6213 4.80124 93.8907 4.42338 94.2543 4.15256C94.5128 3.97877 94.8183 3.88814 95.1299 3.89286Z"
        fill="#2F2E41" />
    <path
        d="M86.4229 29.7058L94.0643 24.8186L90.2156 19.7092L86.4151 24.3778L74.5739 25.1031C74.2625 24.7956 73.8682 24.5853 73.4391 24.4978C73.01 24.4102 72.5647 24.4493 72.1575 24.6101C71.7502 24.7709 71.3987 25.0466 71.1456 25.4036C70.8926 25.7605 70.749 26.1833 70.7323 26.6203C70.7157 27.0573 70.8268 27.4897 71.052 27.8648C71.2772 28.2399 71.6068 28.5414 72.0007 28.7326C72.3945 28.9239 72.8356 28.9965 73.2701 28.9418C73.7046 28.887 74.1137 28.7071 74.4476 28.4242L86.4229 29.7058Z"
        fill="#FFB6B6" />
    <path
        d="M101.157 17.997C101.6 20.6774 93.2249 25.7958 93.2249 25.7958C93.2248 25.1667 88.226 29.9162 88.0003 29.3944C87.3591 27.9115 86.9082 24.3991 86.0121 23.8369C85.4997 23.5154 89.0984 20.4951 89.0984 20.4951C89.0984 20.4951 90.9822 18.5999 93.4543 16.2093C94.1406 15.5206 94.9903 15.0164 95.9243 14.7438C96.8582 14.4712 97.846 14.4389 98.7958 14.6501C98.7958 14.6501 100.713 15.3165 101.157 17.997Z"
        fill="#130160" />
    <path
        d="M116.907 30.9886L111.852 23.4626L106.819 27.4135L111.573 31.1091L112.55 42.9164C112.249 43.2338 112.047 43.632 111.968 44.0622C111.889 44.4925 111.938 44.9362 112.108 45.3394C112.277 45.7426 112.561 46.0878 112.923 46.3329C113.286 46.578 113.712 46.7124 114.15 46.7198C114.588 46.7271 115.019 46.6071 115.389 46.3743C115.76 46.1415 116.055 45.806 116.238 45.4087C116.421 45.0114 116.485 44.5695 116.421 44.1369C116.357 43.7042 116.168 43.2995 115.877 42.9722L116.907 30.9886Z"
        fill="#FFB6B6" />
    <path
        d="M104.873 16.5259C107.547 16.0264 112.849 24.2801 112.849 24.2801C112.219 24.2935 117.08 29.1839 116.562 29.4202C115.091 30.0919 111.584 30.6164 111.04 31.523C110.729 32.0414 107.629 28.5123 107.629 28.5123C107.629 28.5123 105.692 26.6716 103.247 24.254C102.542 23.5834 102.02 22.7457 101.727 21.819C101.434 20.8923 101.381 19.9067 101.572 18.954C101.572 18.954 102.199 17.0255 104.873 16.5259Z"
        fill="#130160" />
    <path
        d="M118.198 93.5934C118.198 93.6228 118.193 93.6519 118.181 93.6791C118.17 93.7063 118.154 93.731 118.133 93.7518C118.112 93.7725 118.087 93.789 118.06 93.8002C118.033 93.8114 118.004 93.8172 117.974 93.8171H65.224C65.1646 93.8171 65.1076 93.7935 65.0656 93.7516C65.0236 93.7096 65 93.6527 65 93.5934C65 93.5341 65.0236 93.4772 65.0656 93.4353C65.1076 93.3933 65.1646 93.3698 65.224 93.3698H117.974C118.004 93.3697 118.033 93.3754 118.06 93.3866C118.087 93.3978 118.112 93.4143 118.133 93.4351C118.154 93.4559 118.17 93.4805 118.181 93.5077C118.193 93.5349 118.198 93.564 118.198 93.5934Z"
        fill="#130160" />
</svg>
