<svg width="153" height="152" viewBox="0 0 153 152" fill="none" xmlns="http://www.w3.org/2000/svg">
<path opacity="0.3" d="M143.157 38.9411C140.317 46.1324 135.8 26.8958 128.609 24.0551C121.418 21.2144 103.447 22.429 106.287 15.2377C109.128 8.04646 130.086 7.43555 137.277 10.2762C144.469 13.1169 145.998 31.7498 143.157 38.9411Z" fill="#03A9F4"/>
<circle opacity="0.1" cx="130" cy="146" r="6" fill="#03A9F4"/>
<circle opacity="0.1" cx="120" cy="37" r="6" fill="#03A9F4"/>
<circle opacity="0.1" cx="6" cy="75" r="6" fill="#03A9F4"/>
<rect x="84.7427" y="39.5938" width="64.5508" height="86.0678" rx="18" transform="rotate(30 84.7427 39.5938)" fill="#FFEBCC"/>
<circle opacity="0.1" cx="42" cy="130" r="11" fill="#03A9F4"/>
<rect x="39" y="45" width="72" height="96" rx="18" fill="#FFB237"/>
<circle opacity="0.1" cx="97.5" cy="60.5" r="17.5" fill="#301008"/>
<circle cx="101.5" cy="55.5" r="17.5" fill="#FFF6F4"/>
<path d="M107.916 52.4838L100.326 60.0743L95.7894 55.5378" stroke="#39B070" stroke-width="2" stroke-linecap="round"/>
<rect x="50" y="59.9999" width="19" height="19" rx="5" fill="white"/>
<path d="M52 93.9999H99.5" stroke="white" stroke-width="5"/>
<path d="M52 107H99.5" stroke="white" stroke-width="5"/>
<path d="M52 120L78 120" stroke="white" stroke-width="5"/>
<path d="M120.161 77.7526C121.627 77.2803 123.054 78.5715 122.73 80.0767L122.184 82.6167C121.86 84.1218 120.028 84.7122 118.887 83.6792L116.96 81.9362C115.818 80.9032 116.223 79.0218 117.688 78.5495L120.161 77.7526Z" fill="#FBCBCB"/>
<path d="M26.4535 138.818C27.1862 138.582 27.8997 139.228 27.7379 139.98L27.2248 142.366C27.063 143.119 26.1471 143.414 25.5762 142.897L23.7667 141.26C23.1959 140.744 23.3982 139.803 24.1309 139.567L26.4535 138.818Z" fill="#FBCBCB"/>
<path d="M45.4535 33.8183C46.1862 33.5822 46.8997 34.2278 46.7379 34.9804L46.2248 37.3661C46.063 38.1187 45.1471 38.4139 44.5762 37.8974L42.7667 36.2602C42.1959 35.7437 42.3982 34.803 43.1309 34.5669L45.4535 33.8183Z" fill="#FBCBCB"/>
</svg>

