<svg width="24" height="24" viewBox="0 0 24 24" fill="none" xmlns="http://www.w3.org/2000/svg">
<path d="M21 12.75C21.4142 12.75 21.75 12.4142 21.75 12C21.75 11.5858 21.4142 11.25 21 11.25V12.75ZM2.26053 11.4697C1.96764 11.7626 1.96764 12.2374 2.26053 12.5303L7.0335 17.3033C7.3264 17.5962 7.80127 17.5962 8.09416 17.3033C8.38706 17.0104 8.38706 16.5355 8.09416 16.2426L3.85152 12L8.09416 7.75736C8.38706 7.46447 8.38706 6.98959 8.09416 6.6967C7.80127 6.40381 7.3264 6.40381 7.0335 6.6967L2.26053 11.4697ZM21 11.25L2.79086 11.25V12.75L21 12.75V11.25Z" fill="#0D0140"/>
</svg>
